<mxfile host="Electron" agent="Mozilla/5.0 (Macintosh; Intel Mac OS X 10_15_7) AppleWebKit/537.36 (KHTML, like Gecko) draw.io/27.0.9 Chrome/134.0.6998.205 Electron/35.4.0 Safari/537.36" version="27.0.9">
  <diagram name="Seite-1" id="-l-3NIzK-LJ-EBgJtLPk">
    <mxGraphModel dx="1106" dy="724" grid="1" gridSize="10" guides="1" tooltips="1" connect="1" arrows="1" fold="1" page="1" pageScale="1" pageWidth="827" pageHeight="1169" math="0" shadow="0">
      <root>
        <mxCell id="0" />
        <mxCell id="1" parent="0" />
        <mxCell id="krYd5MHqY_rI3p7ThEgp-5" style="edgeStyle=orthogonalEdgeStyle;rounded=0;orthogonalLoop=1;jettySize=auto;html=1;entryX=0;entryY=0.5;entryDx=0;entryDy=0;" edge="1" parent="1" source="krYd5MHqY_rI3p7ThEgp-1" target="krYd5MHqY_rI3p7ThEgp-2">
          <mxGeometry relative="1" as="geometry" />
        </mxCell>
        <mxCell id="krYd5MHqY_rI3p7ThEgp-1" value="Frontend&lt;div&gt;&amp;lt;&amp;lt;container&amp;gt;&amp;gt;&lt;/div&gt;" style="rounded=0;whiteSpace=wrap;html=1;" vertex="1" parent="1">
          <mxGeometry x="140" y="200" width="120" height="60" as="geometry" />
        </mxCell>
        <mxCell id="krYd5MHqY_rI3p7ThEgp-2" value="Backend&lt;div&gt;&amp;lt;&amp;lt;container&amp;gt;&amp;gt;&lt;/div&gt;" style="rounded=0;whiteSpace=wrap;html=1;" vertex="1" parent="1">
          <mxGeometry x="390" y="200" width="120" height="60" as="geometry" />
        </mxCell>
        <mxCell id="krYd5MHqY_rI3p7ThEgp-3" value="" style="image;sketch=0;aspect=fixed;html=1;points=[];align=center;fontSize=12;image=img/lib/mscae/Database_General.svg;" vertex="1" parent="1">
          <mxGeometry x="640" y="200" width="38" height="50" as="geometry" />
        </mxCell>
        <mxCell id="krYd5MHqY_rI3p7ThEgp-4" style="edgeStyle=orthogonalEdgeStyle;rounded=0;orthogonalLoop=1;jettySize=auto;html=1;entryX=-0.053;entryY=0.6;entryDx=0;entryDy=0;entryPerimeter=0;" edge="1" parent="1" source="krYd5MHqY_rI3p7ThEgp-2" target="krYd5MHqY_rI3p7ThEgp-3">
          <mxGeometry relative="1" as="geometry" />
        </mxCell>
        <mxCell id="krYd5MHqY_rI3p7ThEgp-7" style="edgeStyle=orthogonalEdgeStyle;rounded=0;orthogonalLoop=1;jettySize=auto;html=1;" edge="1" parent="1" source="krYd5MHqY_rI3p7ThEgp-6" target="krYd5MHqY_rI3p7ThEgp-1">
          <mxGeometry relative="1" as="geometry" />
        </mxCell>
        <mxCell id="krYd5MHqY_rI3p7ThEgp-8" style="edgeStyle=orthogonalEdgeStyle;rounded=0;orthogonalLoop=1;jettySize=auto;html=1;" edge="1" parent="1" source="krYd5MHqY_rI3p7ThEgp-6" target="krYd5MHqY_rI3p7ThEgp-2">
          <mxGeometry relative="1" as="geometry" />
        </mxCell>
        <mxCell id="krYd5MHqY_rI3p7ThEgp-6" value="" style="image;aspect=fixed;perimeter=ellipsePerimeter;html=1;align=center;shadow=0;dashed=0;spacingTop=3;image=img/lib/active_directory/internet_globe.svg;" vertex="1" parent="1">
          <mxGeometry x="300" y="70" width="50" height="50" as="geometry" />
        </mxCell>
        <mxCell id="krYd5MHqY_rI3p7ThEgp-9" value="" style="image;sketch=0;aspect=fixed;html=1;points=[];align=center;fontSize=12;image=img/lib/mscae/Docker.svg;" vertex="1" parent="1">
          <mxGeometry x="425" y="270" width="50" height="41" as="geometry" />
        </mxCell>
        <mxCell id="krYd5MHqY_rI3p7ThEgp-10" value="" style="image;sketch=0;aspect=fixed;html=1;points=[];align=center;fontSize=12;image=img/lib/mscae/Docker.svg;" vertex="1" parent="1">
          <mxGeometry x="175" y="270" width="50" height="41" as="geometry" />
        </mxCell>
      </root>
    </mxGraphModel>
  </diagram>
</mxfile>
